Patient4_TMGait_0pt8_01_right_07_EMG.mot
version=1
nRows=20
nColumns=33
inDegrees=no
endheader
time	1LAddLong	2LGlutMax	3LGlutMed	4LIliopsoas	5LSemiMemb	6LBicFemLong	7LRecFem	8LVastMed	9LVastLat	10LGasMed	11LTibAnt	12lTibPost	13LPeroneusLong	14LSol	15LExtDigLong	16LFlexDigLong	17RAddLong	18RGlutMax	19RGlutMed	20RIliopsoas	21RSemiMemb	22RBicFemLong	23RRecFem	24RVastMed	25RVastLat	26RGasMed	27RTibAnt	28RTibPost	29RPeroneusLong	30RSol	31RExtDigLong	32RFlexDigLong
8.788	0.008087	0.029907	-0.066223	-0.007172	-0.021362	-0.045471	0.17166	0.010834	0.061798	-0.28824	0.007629	0.020599	0.20294	0.067749	0.3624	-0.023956	0.005646	-0.046997	-0.30014	0.23712	-0.029602	0.023651	-0.003815	-0.043488	0.016632	0.021515	0.13962	-0.004425	-0.168	-0.075989	0.007629	-0.020752
8.789	0.006104	0.066986	0.012665	-0.003204	-0.010376	-0.023651	0.17746	0.010681	0.054932	0.075378	0.021667	0.007324	0.0737	-0.083771	0.24689	-0.014648	0.03418	-0.023346	0.17746	0.095367	-0.10803	0.062714	0.00473	-0.05249	0.023499	0.015106	0.177	-0.009766	0.018616	-0.077362	-0.001831	-0.028534
8.79	-0.005035	0.007019	-0.099335	-0.002899	-0.013275	-0.038757	0.1799	0.006409	0.041199	0.81924	0.037384	0.005341	-0.71167	-0.14221	0.015411	-0.014038	-0.000458	-0.048981	0.15243	-0.032196	-0.056763	0.072937	-0.013275	-0.000458	0.036011	0.00412	0.072937	-0.002594	0.03006	-0.050964	-0.000458	-0.028534
8.791	-0.000153	-0.004425	-0.13153	-0.011902	-0.010681	-0.10666	0.20096	0.010834	0.04715	1.7398	-0.013885	0.015717	-0.040131	-0.24262	-0.093842	-0.014191	0.011139	-0.13626	0.11276	-0.012207	-0.083313	0.017242	-0.052948	-0.053558	0.015259	0	0.038605	-0.002136	0.014801	-0.028381	-0.001373	-0.027008
8.792	0.006714	0.014038	-0.12238	-0.015717	-0.029602	-0.15091	0.21851	0.013733	0.016785	2.1164	-0.00885	0.00351	0.062103	-0.28519	0.092316	-0.012512	0.016174	-0.13962	0.15671	-0.15228	-0.31082	0.018768	-0.046692	-0.098267	0.001373	-0.007172	0.093689	-0.006256	0.048981	-0.048218	0.001526	-0.027771
8.793	-0.000916	0.089111	-0.13138	0.009155	0.028839	-0.16174	0.23239	0.005646	0.009613	1.25	0.011139	0.007477	-0.22858	-0.2179	0.097809	-0.027313	0.007019	-0.084534	-0.091553	-0.26733	-0.1088	0.010834	-0.031891	-0.079803	0.011444	-0.020599	0.14191	-0.006866	0.19516	-0.066376	-0.001678	-0.017548
8.794	-0.001984	0.050659	-0.15228	0.019684	-0.005951	-0.10208	0.22842	0.002136	0.01236	-0.31525	0.012817	-0.003052	0.12146	-0.04425	0.035553	-0.61584	-0.014801	-0.06134	-0.11154	-0.2272	0.22903	0.043335	-0.046692	-0.063477	0.001221	-0.02533	0.24262	-0.003204	0.10483	-0.062866	-0.000305	-0.020142
8.795	0.01236	0.10056	-0.050201	0.01358	-0.02594	0.015717	0.20218	0.003052	0.018158	-0.71945	-0.005951	-0.053253	-0.10971	0.1268	-0.00061	0.57877	-0.031433	-0.037537	-0.072784	-0.054779	0.12512	0.02182	-0.031891	-0.019989	-0.001221	-0.033264	0.2861	-0.001678	-0.03479	-0.027924	0.002289	-0.017395
8.796	0.029449	0.10864	-0.01297	0.011139	-0.059052	0.017548	0.22705	-0.007629	0.014648	-0.62622	-0.002136	-0.18051	0.005798	0.20371	-0.019836	0.014954	-0.024109	-0.045166	-0.21515	0.1062	0.016632	0.054169	-0.085754	-0.010529	0.015564	-0.053864	0.35568	-0.002747	-0.05127	0.021515	0.004883	-0.015564
8.797	0.021973	0.13779	0.1445	0.008545	0.036469	0.019989	0.26733	-0.002136	0.03006	-0.90027	-0.015717	0.20111	0.015869	0.14175	0.012817	-0.20157	-0.020142	-0.053406	-0.44403	0.44754	-0.002441	0.047913	-0.049286	-0.01297	0.022888	-0.053864	0.26947	-0.002136	0.009918	-0.02121	0.000153	-0.00824
8.798	0.018463	0.12604	0.022583	0.020447	0.10971	0.044861	0.24994	0.006561	0.011139	-0.68924	-0.007172	0.14801	-0.036621	0.14648	-0.028687	-0.005646	-0.015564	-0.075531	-0.51636	0.43549	-0.00061	0.035248	-0.034485	-0.026093	0.021362	-0.056915	0.34485	-0.001373	-0.069885	-0.06012	0.000458	-0.007019
8.799	0.013733	0.16968	0.009155	0.014954	0.14587	0.066681	0.23682	0.005798	0.037384	-0.63294	0.029602	0.042267	-0.11612	0.19409	-0.077209	0.40588	-0.006256	-0.11139	-0.37781	0.17685	-0.007019	0.028229	-0.041962	-0.004272	0.016327	-0.065002	-0.36606	-0.002899	-0.004883	-0.085297	-0.001221	-0.011444
8.8	0.025787	0.1976	0.011292	0.007324	0.096283	0.083313	0.21774	0.01297	0.016327	-0.49789	-0.012512	0.002594	-0.021362	0.18967	-0.092621	0.067291	0.009308	-0.17242	-0.012054	-0.034485	-0.001678	-0.042725	-0.032959	-0.020599	0.024719	-0.070343	-0.78156	-0.002747	0.036774	-0.10178	0.000458	-0.005341
8.801	0.021667	0.23285	0.082855	0.019379	0.066833	0.20477	0.19241	0.008392	0.036011	-0.31921	0.029297	-0.010376	0.048523	0.009155	-0.086823	-0.080872	0.015259	-0.16449	-0.057526	-0.031738	-0.018768	-0.083008	-0.039063	-0.033417	0.014038	-0.062561	-0.58853	-0.002747	0.2298	-0.11826	-0.001831	0.00946
8.802	0.023956	0.27481	0.024414	0.02655	0.038147	0.036011	0.14954	0.004425	-0.002289	-0.12497	0.010223	-0.001678	-0.000763	0.015106	-0.072937	-0.027008	0.027313	-0.16068	-0.20477	-0.00473	-0.031433	-0.067444	-0.054626	-0.03479	0.002441	-0.045166	-0.29816	-0.00412	-0.20157	-0.12054	-0.001068	0.002136
8.803	0.022125	0.3009	-0.005188	0.009766	0.029449	-0.02121	0.14038	-0.003967	-0.073547	-0.012054	0.012665	-0.012207	-0.034027	-0.56488	-0.068512	-0.03006	0.035858	-0.1828	-0.20737	0.005341	-0.020142	0.009308	-0.034027	-0.084534	0.022888	-0.023193	-0.17578	-0.003967	-0.056305	-0.00946	0.009155	-0.002899
8.804	-0.003662	0.31097	-0.017395	-0.001678	0.028381	0.040131	0.16007	0.001526	-0.031738	-0.10284	0.009155	0.005951	-0.088959	-0.57602	-0.075684	-0.045776	0.044861	-0.11887	-0.24323	-0.012512	0.050049	0.051727	-0.046997	-0.10147	0.014954	0.009003	-0.10391	-0.007782	0.066833	0.11795	-0.001068	-0.001831
8.805	-0.00946	0.38773	-0.056152	-0.008087	0.013428	0.038605	0.19333	0.007477	0.001678	-0.23972	0.028381	0.007324	-0.084076	-0.19455	-0.014496	-0.055847	0.048065	-0.044861	-0.56351	-0.046082	0.14053	0.063477	-0.046844	-0.1178	0.014648	0.052795	-0.088196	-0.004883	0.10742	0.089569	-0.001221	-0.009918
8.806	-0.006256	0.45273	-0.054626	-0.018463	0.003967	0.008087	0.20783	0.002441	0.025635	-0.242	0.030212	0.003204	-0.079346	-0.1088	-0.004425	-0.041199	-0.024719	0.024109	-0.65216	-0.045929	-0.019836	0.099487	-0.092926	-0.006866	0.03952	0.083923	-0.05249	-0.006256	0.14557	0.003967	-0.001678	-0.003662
8.807	0.001984	0.50476	-0.016174	0.007782	0.031128	-0.011444	0.2742	0.003662	0.036011	-0.27588	0.036926	0.00824	-0.038452	-0.083771	0.008698	-0.019226	-0.034485	0.02243	-0.50384	-0.0354	-0.22553	0.099335	-0.08606	0.04715	0.019379	0.10284	-0.014954	-0.005035	0.041199	-0.017548	-0.000763	-0.004425
